name Walk8.mot
datacolumns 19
datarows 25
range 2.24000000 2.26400000
endheader

                time	   L_ground_force_vx	   L_ground_force_vy	   L_ground_force_vz	   L_ground_force_px	   L_ground_force_py	   L_ground_force_pz	   R_ground_force_vx	   R_ground_force_vy	   R_ground_force_vz	   R_ground_force_px	   R_ground_force_py	   R_ground_force_pz	   L_ground_torque_x	   L_ground_torque_y	   L_ground_torque_z	   R_ground_torque_x	   R_ground_torque_y	   R_ground_torque_z	
          2.24000000	          0.00000000	          0.00000000	          0.00000000	         -0.00000000	          0.00000000	         -0.00000000	          2.72879568	         14.72607599	          1.87823067	          0.16005662	          0.00000000	          0.03520828	          0.00000000	          0.00000000	          0.00000000	          0.00000000	          0.02925918	          0.00000000	
          2.24100000	          0.00000000	          0.00000000	         -0.00000000	         -0.00000000	          0.00000000	         -0.00000000	          2.19476707	         12.81581321	          1.79043697	          0.15217993	          0.00000000	          0.03338937	          0.00000000	          0.00000000	          0.00000000	          0.00000000	          0.03031824	          0.00000000	
          2.24200000	          0.00000000	          0.00000000	         -0.00000000	         -0.00000000	          0.00000000	         -0.00000000	          1.69785029	         11.01954094	          1.70334220	          0.14439789	          0.00000000	          0.03159894	          0.00000000	          0.00000000	          0.00000000	          0.00000000	          0.03117269	          0.00000000	
          2.24300000	          0.00000000	          0.00000000	         -0.00000000	         -0.00000000	          0.00000000	         -0.00000000	          1.23676766	          9.33435494	          1.61721607	          0.13673187	          0.00000000	          0.02984133	          0.00000000	          0.00000000	          0.00000000	          0.00000000	          0.03183670	          0.00000000	
          2.24400000	          0.00000000	          0.00000000	         -0.00000000	         -0.00000000	          0.00000000	         -0.00000000	          0.81021474	          7.75717812	          1.53230165	          0.12920097	          0.00000000	          0.02812040	          0.00000000	          0.00000000	          0.00000000	          0.00000000	          0.03232395	          0.00000000	
          2.24500000	          0.00000000	          0.00000000	         -0.00000000	         -0.00000000	          0.00000000	         -0.00000000	          0.41686751	          6.28478687	          1.44881679	          0.12182216	          0.00000000	          0.02643953	          0.00000000	          0.00000000	          0.00000000	          0.00000000	          0.03264762	          0.00000000	
          2.24600000	          0.00000000	          0.00000000	         -0.00000000	         -0.00000000	          0.00000000	         -0.00000000	          0.05538906	          4.91383570	          1.36695543	          0.11461039	          0.00000000	          0.02480166	          0.00000000	          0.00000000	          0.00000000	          0.00000000	          0.03282041	          0.00000000	
          2.24700000	          0.00000000	          0.00000000	         -0.00000000	         -0.00000000	          0.00000000	         -0.00000000	         -0.27556430	          3.64088028	          1.28688885	          0.10757871	          0.00000000	          0.02320934	          0.00000000	          0.00000000	          0.00000000	          0.00000000	          0.03285448	          0.00000000	
          2.24800000	          0.00000000	          0.00000000	         -0.00000000	         -0.00000000	          0.00000000	         -0.00000000	         -0.57733732	          2.46239879	          1.20876702	          0.10073837	          0.00000000	          0.02166469	          0.00000000	          0.00000000	          0.00000000	          0.00000000	          0.03276151	          0.00000000	
          2.24900000	          0.00000000	          0.00000000	         -0.00000000	         -0.00000000	          0.00000000	         -0.00000000	         -0.85127073	          1.37481187	          1.13271977	          0.09409896	          0.00000000	          0.02016952	          0.00000000	          0.00000000	          0.00000000	          0.00000000	          0.03255265	          0.00000000	
          2.25000000	          0.00000000	          0.00000000	         -0.00000000	         -0.00000000	          0.00000000	         -0.00000000	         -1.09869642	          0.37450102	          1.05885810	          0.08766849	          0.00000000	          0.01872525	          0.00000000	          0.00000000	          0.00000000	          0.00000000	          0.03223853	          0.00000000	
          2.25100000	          0.00000000	          0.00000000	         -0.00000000	         -0.00000000	          0.00000000	         -0.00000000	         -1.32093323	         -0.54217438	          0.98727528	          0.08145348	          0.00000000	          0.01733302	          0.00000000	          0.00000000	          0.00000000	          0.00000000	          0.03182930	          0.00000000	
          2.25200000	          0.00000000	          0.00000000	         -0.00000000	         -0.00000000	          0.00000000	         -0.00000000	         -1.51928304	         -1.37886147	          0.91804804	          0.07545910	          0.00000000	          0.01599367	          0.00000000	          0.00000000	          0.00000000	          0.00000000	          0.03133459	          0.00000000	
          2.25300000	          0.00000000	          0.00000000	         -0.00000000	         -0.00000000	          0.00000000	         -0.00000000	         -1.69502731	         -2.13919954	          0.85123770	          0.06968925	          0.00000000	          0.01470776	          0.00000000	          0.00000000	          0.00000000	          0.00000000	          0.03076354	          0.00000000	
          2.25400000	          0.00000000	          0.00000000	         -0.00000000	         -0.00000000	          0.00000000	         -0.00000000	         -1.84942395	         -2.82680697	          0.78689122	          0.06414663	          0.00000000	          0.01347560	          0.00000000	          0.00000000	          0.00000000	          0.00000000	          0.03012479	          0.00000000	
          2.25500000	          0.00000000	          0.00000000	         -0.00000000	         -0.00000000	          0.00000000	         -0.00000000	         -1.98370460	         -3.44526930	          0.72504227	          0.05883288	          0.00000000	          0.01229729	          0.00000000	          0.00000000	          0.00000000	          0.00000000	          0.02942651	          0.00000000	
          2.25600000	          0.00000000	          0.00000000	         -0.00000000	         -0.00000000	          0.00000000	         -0.00000000	         -2.09907220	         -3.99812852	          0.66571221	          0.05374860	          0.00000000	          0.01117269	          0.00000000	          0.00000000	          0.00000000	          0.00000000	          0.02867641	          0.00000000	
          2.25700000	          0.00000000	          0.00000000	         -0.00000000	         -0.00000000	          0.00000000	         -0.00000000	         -2.19669886	         -4.48887334	          0.60891107	          0.04889351	          0.00000000	          0.01010150	          0.00000000	          0.00000000	          0.00000000	          0.00000000	          0.02788173	          0.00000000	
          2.25800000	          0.00000000	          0.00000000	         -0.00000000	         -0.00000000	          0.00000000	         -0.00000000	         -2.27772408	         -4.92093059	          0.55463846	          0.04426647	          0.00000000	          0.00908321	          0.00000000	          0.00000000	          0.00000000	          0.00000000	          0.02704925	          0.00000000	
          2.25900000	          0.00000000	          0.00000000	         -0.00000000	         -0.00000000	          0.00000000	         -0.00000000	         -2.34325320	         -5.29765748	          0.50288449	          0.03986556	          0.00000000	          0.00811717	          0.00000000	          0.00000000	          0.00000000	          0.00000000	          0.02618534	          0.00000000	
          2.26000000	          0.00000000	          0.00000000	         -0.00000000	         -0.00000000	          0.00000000	         -0.00000000	         -2.39435616	         -5.62233487	          0.45363057	          0.03568819	          0.00000000	          0.00720260	          0.00000000	          0.00000000	          0.00000000	          0.00000000	          0.02529594	          0.00000000	
          2.26100000	          0.00000000	          0.00000000	         -0.00000000	         -0.00000000	          0.00000000	         -0.00000000	         -2.43206642	         -5.89816133	          0.40685026	          0.03173114	          0.00000000	          0.00633857	          0.00000000	          0.00000000	          0.00000000	          0.00000000	          0.02438657	          0.00000000	
          2.26200000	          0.00000000	          0.00000000	         -0.00000000	         -0.00000000	          0.00000000	         -0.00000000	         -2.45738018	         -6.12824810	          0.36251002	          0.02799063	          0.00000000	          0.00552405	          0.00000000	          0.00000000	          0.00000000	          0.00000000	          0.02346236	          0.00000000	
          2.26300000	          0.00000000	          0.00000000	         -0.00000000	         -0.00000000	          0.00000000	         -0.00000000	         -2.47125579	         -6.31561472	          0.32056992	          0.02446239	          0.00000000	          0.00475792	          0.00000000	          0.00000000	          0.00000000	          0.00000000	          0.02252808	          0.00000000	
          2.26400000	          0.00000000	          0.00000000	         -0.00000000	         -0.00000000	          0.00000000	         -0.00000000	         -2.47461334	         -6.46318540	          0.28098439	          0.02114169	          0.00000000	          0.00403894	          0.00000000	          0.00000000	          0.00000000	          0.00000000	          0.02158811	          0.00000000	
